<svg width="264" height="287" viewBox="0 0 264 287" fill="none" xmlns="http://www.w3.org/2000/svg">
<path d="M88.5 21L87.5 3.5L192.5 2V22L88.5 21Z" fill="#E7E7C5"/>
<path fill-rule="evenodd" clip-rule="evenodd" d="M84.9783 1.33946C83.5669 3.03978 85.1582 21.4584 86.8975 23.5546C87.9061 24.7691 96.3307 24.99 141.745 24.99C182.144 24.99 195.697 24.6941 196.601 23.7905C198.444 21.9472 198.026 19.2843 195.801 18.7025C194.078 18.2517 193.802 17.3391 193.802 12.0892C193.802 7.45201 194.146 5.9976 195.242 5.9976C197.371 5.9976 198.037 4.31027 196.812 2.02019C195.747 0.0309837 194.894 0 140.91 0C96.3148 0 85.8819 0.249896 84.9783 1.33946ZM190.693 11.5334C190.714 15.6777 191 19.5012 191.327 20.03C191.704 20.6407 173.295 20.9916 140.851 20.9916C100.867 20.9916 89.6974 20.7207 89.3955 19.7421C89.1836 19.0554 88.7738 15.2319 88.4849 11.2455L87.9601 3.9984H139.307H190.653L190.693 11.5334ZM165.282 8.04678C164.333 9.58417 165.633 10.5758 166.917 9.29229C167.634 8.57457 167.651 8.01579 166.968 7.59396C166.409 7.2481 165.65 7.45202 165.282 8.04678ZM93.8417 9.5182C93.8417 10.8357 96.3967 11.0026 113.001 10.7677C127.243 10.5658 132.268 10.1749 132.577 9.2463C132.9 8.27469 128.633 7.9968 113.417 7.9968C96.5597 7.9968 93.8417 8.20772 93.8417 9.5182ZM136.043 9.15035C136.562 10.7077 138.798 10.9796 138.877 9.4962C138.906 8.94642 138.179 8.34167 137.262 8.15075C136.22 7.93583 135.763 8.30968 136.043 9.15035ZM146.071 9.2463C146.3 9.93403 147.762 10.4958 149.32 10.4958C150.877 10.4958 152.339 9.93403 152.568 9.2463C152.851 8.39864 151.808 7.9968 149.32 7.9968C146.832 7.9968 145.788 8.39864 146.071 9.2463ZM157.816 8.9964C157.816 9.54618 158.491 9.996 159.316 9.996C160.14 9.996 160.815 9.54618 160.815 8.9964C160.815 8.44662 160.14 7.9968 159.316 7.9968C158.491 7.9968 157.816 8.44662 157.816 8.9964ZM98.09 14.7081C93.0751 15.3449 94.2486 16.7183 99.9173 16.8463C103.536 16.9282 104.875 16.6063 104.582 15.7277C104.118 14.3313 102.75 14.1164 98.09 14.7081ZM119.831 15.9936C119.831 16.5434 120.506 16.9932 121.331 16.9932C122.155 16.9932 122.83 16.5434 122.83 15.9936C122.83 15.4438 122.155 14.994 121.331 14.994C120.506 14.994 119.831 15.4438 119.831 15.9936ZM126.829 15.9936C126.829 16.5434 127.728 16.9932 128.828 16.9932C129.927 16.9932 130.827 16.5434 130.827 15.9936C130.827 15.4438 129.927 14.994 128.828 14.994C127.728 14.994 126.829 15.4438 126.829 15.9936ZM135.825 15.9936C135.825 16.5434 136.5 16.9932 137.324 16.9932C138.149 16.9932 138.824 16.5434 138.824 15.9936C138.824 15.4438 138.149 14.994 137.324 14.994C136.5 14.994 135.825 15.4438 135.825 15.9936ZM140.823 15.9936C140.823 16.5654 143.842 16.9932 147.879 16.9932C152.328 16.9932 154.707 16.6243 154.318 15.9936C153.978 15.4438 150.803 14.994 147.261 14.994C143.636 14.994 140.823 15.4308 140.823 15.9936ZM158.816 15.9936C158.816 16.5434 160.39 16.9932 162.314 16.9932C164.239 16.9932 165.813 16.5434 165.813 15.9936C165.813 15.4438 164.239 14.994 162.314 14.994C160.39 14.994 158.816 15.4438 158.816 15.9936Z" fill="#3D5E45"/>
<path d="M91 42.5L88.5 30H197V55.5L87 54.5L91 42.5Z" fill="#F3CDA7"/>
<path d="M59 60.5L66 55.5H204.5L215 58.5V80.5L210.5 83H65L57 73.5L59 60.5Z" fill="#E8DDB1"/>
<path fill-rule="evenodd" clip-rule="evenodd" d="M84.5956 27.8118C82.5005 28.1997 82.2226 31.9872 84.2887 31.9872C88.8929 31.9872 90.7002 45.3518 86.7718 50.3448C84.8095 52.8398 84.2288 52.9788 75.7442 52.9788C70.2114 52.9788 65.4723 53.5286 63.3441 54.4182C54.3287 58.1847 52.0686 73.8644 59.3897 81.8532C59.3897 81.8532 58.0095 80.7534 63.0075 83.9664C68.0055 87.1794 137.774 85.7347 137.774 85.7347L212.848 86.0025L215.387 83.4636C216.905 81.9462 217.798 80.0609 217.609 78.7755C217.146 75.6307 214.958 75.4068 213.825 78.3876C213.285 79.806 212.271 80.9666 211.57 80.9656C210.869 80.9636 178.008 81.2325 138.546 81.5613C72.5164 82.1121 66.5928 82.0272 64.2418 80.4868C58.4611 76.6983 57.4435 65.8906 62.3315 60.2069L64.6806 57.477H137.818C206.32 57.477 211.037 57.5879 212.236 59.2263C213.959 61.5833 216.793 61.4734 216.793 59.0493C216.793 55.6707 212.126 52.9788 206.269 52.9788C202.519 52.9788 200.848 52.549 200.437 51.4794C200.121 50.6547 199.16 49.98 198.3 49.98C197.44 49.98 196.479 50.6547 196.163 51.4794C195.661 52.7859 188.788 52.9788 142.689 52.9788H89.7926L91.3169 50.03C92.1556 48.4076 92.8423 45.7087 92.8423 44.0324V40.9836H118.832C141.722 40.9836 144.822 40.7976 144.822 39.4232C144.822 38.0398 141.86 37.8978 118.882 38.1737C96.5049 38.4416 92.8833 38.2787 92.5065 36.9852C92.2656 36.1605 91.7458 34.6991 91.3489 33.7365C90.6702 32.0861 93.0702 31.9872 133.653 31.9872H176.676L177.093 34.7361L177.508 37.485L177.658 34.7361L177.808 31.9872L186.555 31.8292C191.366 31.7413 196.044 31.7283 196.953 31.7992C199.331 31.9862 201.287 29.4192 199.599 28.3276C198.411 27.561 88.622 27.0681 84.5956 27.8118ZM151.362 38.9154C150.679 40.02 152.256 41.2135 153.179 40.2899C154.129 39.3392 153.952 37.9848 152.877 37.9848C152.36 37.9848 151.678 38.4036 151.362 38.9154ZM157.313 38.9914C156.518 40.2759 159.326 41.3854 161.378 40.5977C163.381 39.829 162.279 37.9848 159.816 37.9848C158.781 37.9848 157.654 38.4376 157.313 38.9914ZM97.8403 45.8746C97.8403 47.6039 101.15 47.9808 116.333 47.9808C131.669 47.9808 135.298 47.555 134.261 45.8766C133.539 44.7091 97.8403 44.7061 97.8403 45.8746ZM139.096 46.2994C139.373 47.1331 144.391 47.5469 156.15 47.7069C169.917 47.8928 172.81 47.6879 172.81 46.5244C172.81 45.3688 169.755 45.1169 155.756 45.1169C143.077 45.1169 138.803 45.4198 139.096 46.2994ZM187.443 45.6757C186.318 46.8013 186.759 47.9808 188.304 47.9808C189.129 47.9808 189.804 47.558 189.804 47.0402C189.804 45.7797 188.242 44.877 187.443 45.6757ZM111.835 62.8188C111.835 63.5555 182.91 65.1279 194.714 64.6521C197.211 64.5511 199.307 63.9324 199.546 63.2247C199.877 62.2381 190.711 61.9752 155.9 61.9752C131.664 61.9752 111.835 62.355 111.835 62.8188ZM107.561 69.7781C104.893 69.949 103.046 70.4998 103.372 71.0276C104.163 72.306 129.535 72.2531 130.327 70.9716C130.667 70.4218 130.356 69.891 129.637 69.791C127.321 69.4712 112.485 69.4622 107.561 69.7781ZM135.492 69.6391C134.133 70.9976 134.898 71.9712 137.325 71.9712C138.88 71.9712 139.824 71.4044 139.824 70.4718C139.824 68.9724 136.75 68.3816 135.492 69.6391ZM152.818 69.972C152.818 70.5218 154.393 70.9716 156.317 70.9716C158.241 70.9716 159.816 70.5218 159.816 69.972C159.816 69.4222 158.241 68.9724 156.317 68.9724C154.393 68.9724 152.818 69.4222 152.818 69.972ZM165.813 69.972C165.813 70.5987 172.144 70.9716 182.806 70.9716C193.469 70.9716 199.8 70.5987 199.8 69.972C199.8 69.3452 193.469 68.9724 182.806 68.9724C172.144 68.9724 165.813 69.3452 165.813 69.972ZM151.362 75.9006C150.319 77.5869 156.767 78.0637 176.561 77.7619C188.31 77.5829 195.901 77.0801 196.053 76.4694C196.386 75.1289 152.187 74.5661 151.362 75.9006Z" fill="#D94037"/>
<path d="M80 89.5V119H214.5L225 107.5L226 101.5L220.5 91L80 89.5Z" fill="#FAFFE1"/>
<path d="M84 146L83.5 121H244L240.5 130.5L243 142.5L231 148L84 146Z" fill="#E4D0BA"/>
<path d="M91 181.971V147H214.5V153.686H226V183L91 181.971Z" fill="#FFF8C0"/>
<path fill-rule="evenodd" clip-rule="evenodd" d="M76.599 87.264C76.1902 87.6728 75.8553 88.6565 75.8553 89.4491C75.8553 90.4807 76.5 92.5 77.5 93C79 93.5 83.3473 93.8454 109.175 93.2886C159.414 92.207 217.331 92.352 219.6 93.5665C220.769 94.1923 222.259 96.4813 222.909 98.6535C223.9 101.96 223.816 103.328 222.394 107.053C221.459 109.5 219.515 112.275 218.074 113.22C211.648 117.43 208.147 117.639 143.685 117.651C89.8277 117.662 81.9939 117.474 81.4911 116.163C81.1752 115.339 80.2755 114.664 79.4919 114.664C77.2388 114.664 76.633 117.76 78.4853 119.807C80.0646 121.551 80.0506 121.659 78.2593 121.629C77.2118 121.612 71.632 120.965 65.8593 120.19C54.4009 118.651 52.8195 119.072 54.6828 123.163C55.3235 124.568 59.8957 142.686 64.8437 163.424C69.7927 184.162 74.4089 203.379 75.1036 206.127L76.5086 211.126L87.8555 211.743C94.175 212.084 131.058 212.401 169.818 212.45C244.286 212.542 243.337 211.954 248.444 207.417C249.586 206.402 251.201 205.04 252.442 202.919C253.097 201.8 253.013 201.919 254.013 199.92C255.013 197.921 256.534 190.177 257.44 183.926C258.574 176.104 257.861 177.072 259.939 163.934C261.583 153.536 262.686 145.59 262.438 144.942C262.166 144.234 257.429 143.372 251.942 142.943C243.496 142.282 244.566 141.2 243.712 138.954C242.139 134.816 242.609 129.131 244.68 127.257C245.891 126.16 246.378 124.759 246.034 123.354C244.95 118.914 244.13 118.662 230.802 118.662H218.061L222.333 114.391C225.77 110.954 226.749 109.155 227.345 105.181C228.259 99.0873 226.389 93.1637 222.688 90.4238C220.177 88.5665 217.515 88.4855 151.716 88.2796C114.116 88.1617 81.9998 87.7168 80.3475 87.292C78.6952 86.8672 77.0088 86.8552 76.599 87.264ZM88.6002 101.222C86.63 103.273 88.9331 103.668 102.845 103.668C112.174 103.668 117.839 103.291 117.839 102.669C117.839 102.11 115.086 101.666 111.591 101.663C108.155 101.66 101.745 101.384 97.3467 101.05C92.9485 100.716 89.013 100.794 88.6002 101.222ZM125.474 101.363C124.349 102.489 124.79 103.668 126.335 103.668C127.16 103.668 127.835 103.246 127.835 102.728C127.835 101.467 126.273 100.565 125.474 101.363ZM133.832 102.669C133.832 104.168 136.984 104.168 156.323 104.168C170.65 104.168 179.467 104.168 179.467 102.728C179.467 101.017 174.236 101.363 156.323 101.363C137.984 101.363 133.832 101.363 133.832 102.669ZM96.3431 110.673C96.0003 111.226 96.3761 111.931 97.1778 112.239C99.6058 113.171 106.161 112.249 106.599 110.916C107.107 109.369 97.2917 109.136 96.3431 110.673ZM110.034 110.741C110.231 111.331 110.819 111.815 111.341 111.815C111.863 111.815 112.452 111.331 112.649 110.741C112.846 110.15 112.258 109.666 111.341 109.666C110.424 109.666 109.837 110.15 110.034 110.741ZM115.089 110.916C115.388 111.819 119.428 112.242 129.666 112.442C141.822 112.681 143.828 112.504 143.828 111.192C143.828 109.893 141.658 109.666 129.251 109.666C118.033 109.666 114.769 109.954 115.089 110.916ZM154.824 110.666C154.824 111.215 155.498 111.665 156.323 111.665C157.148 111.665 157.823 111.215 157.823 110.666C157.823 110.116 157.148 109.666 156.323 109.666C155.498 109.666 154.824 110.116 154.824 110.666ZM162.013 110.741C162.21 111.331 162.799 111.815 163.32 111.815C163.842 111.815 164.431 111.331 164.628 110.741C164.825 110.15 164.237 109.666 163.32 109.666C162.404 109.666 161.816 110.15 162.013 110.741ZM80.8533 112.165C80.8533 112.99 81.3031 113.664 81.8529 113.664C82.4027 113.664 82.8525 112.99 82.8525 112.165C82.8525 111.34 82.4027 110.666 81.8529 110.666C81.3031 110.666 80.8533 111.34 80.8533 112.165ZM126.335 123.66C126.675 124.21 127.826 124.66 128.893 124.66C129.961 124.66 130.833 124.21 130.833 123.66C130.833 123.006 149.993 122.661 186.311 122.661C216.824 122.661 241.789 123.042 241.789 123.507C241.789 123.972 241.061 125.811 240.173 127.593C238.993 129.958 238.732 132.165 239.209 135.757L239.862 140.68L234.578 140.066C194.859 135.449 191.184 134.893 199.556 134.774C206.167 134.679 207.803 134.359 207.803 133.157C207.803 132.019 206.535 131.647 202.555 131.617C172.456 131.39 140.227 129.381 116.839 126.274L91.3491 122.888L108.533 122.775C119.037 122.705 125.957 123.05 126.335 123.66ZM77.8545 126.661C83.6272 127.257 95.3225 128.615 103.844 129.68C119.993 131.699 150.799 135.242 161.568 136.319C165.003 136.663 168.319 137.554 168.938 138.299C170.183 139.799 173.461 140.132 173.983 138.81C174.423 137.698 187.865 139.14 188.679 140.388C189.026 140.92 195.607 141.651 203.304 142.014C216.53 142.638 257.387 146.921 258.238 147.774C258.456 147.992 257.452 155.713 256.005 164.932C253.948 178.041 254.518 181.84 253.442 181.427C252.684 181.137 245.036 180.638 238.208 180.638C231.236 180.638 225.795 180.231 225.795 179.709C225.795 179.199 226.531 178.046 227.431 177.146C228.65 175.926 228.777 175.223 227.93 174.376C227.233 173.678 226.795 169.345 226.795 163.138V153.036L220.797 153.333C215.412 153.599 214.8 153.431 214.8 151.677C214.8 149.902 215.637 149.699 224.046 149.438C231.471 149.207 239.15 146.411 239.15 145.206C239.15 143.91 228.871 146.115 200.555 145.888C169.858 145.641 167.817 145.735 167.789 147.387C167.76 149.041 167.693 149.038 166.703 147.337C165.71 145.631 163.405 145.537 127.279 145.735C97.6586 145.898 88.5632 145.658 87.3927 144.687C85.4025 143.036 82.8525 144.076 82.8525 146.54C82.8525 147.912 83.7782 148.695 85.9693 149.176C88.9311 149.827 89.059 150.053 88.5632 153.753C88.2754 155.895 88.4483 157.898 88.9451 158.206C89.4429 158.513 89.8497 160.26 89.8497 162.087C89.8497 164.918 89.4429 165.489 87.1008 165.939C85.5894 166.229 84.2739 166.39 84.178 166.298C84.083 166.205 83.5432 162.309 82.9795 157.64L81.9549 149.15L82.3547 157.897C82.7406 166.332 82.6766 166.648 80.5544 166.779L78.3543 166.915L80.6034 167.349C82.2168 167.66 82.8945 168.54 83.0024 170.462L83.1524 173.141L83.5762 170.313C83.8791 168.291 84.4289 167.651 85.5075 168.064C86.3361 168.383 87.6526 168.642 88.4323 168.642C90.1906 168.642 90.3545 173.735 88.6502 175.44C87.7176 176.372 87.7176 176.639 88.6502 176.639C89.3099 176.639 89.8497 177.539 89.8497 178.638C89.8497 180.111 89.183 180.638 87.3197 180.638C85.8263 180.638 84.5198 181.354 84.133 182.387C83.7711 183.349 82.8125 184.633 82.0018 185.241C80.2295 186.57 81.1492 189.634 83.3213 189.634C84.193 189.634 84.8517 188.76 84.8517 187.604C84.8517 184.933 87.2437 184.114 91.3561 185.377C93.3293 185.982 95.0516 186.032 95.5844 185.499C96.573 184.51 250.348 184.248 251.94 185.232C253.418 186.145 251.827 196.635 249.595 200.687C248.517 202.642 246.49 205.265 245.445 205.918C244.035 206.798 227.801 206.637 181.752 206.703C147.607 206.751 118.492 207.732 117.657 207.732C116.992 207.627 114.993 207.627 110.995 207.627C107.623 207.862 100.416 206.8 93.1724 207.068L80.0017 207.555L77.8755 197.845C76.706 192.504 72.3937 174.19 68.2923 157.147C64.192 140.104 60.8413 125.772 60.8483 125.299C60.8553 124.825 62.3227 124.694 64.11 125.009C65.8973 125.323 72.0818 126.067 77.8545 126.661ZM142.38 125.577C142.059 126.096 142.192 126.765 142.675 127.064C143.157 127.363 158.121 127.643 175.927 127.687C201.915 127.751 208.302 127.509 208.302 126.463C208.302 125.424 201.686 125.107 175.632 124.896C155.907 124.737 142.733 125.007 142.38 125.577ZM92.8485 133.715C92.8485 134.297 93.2983 134.496 93.8481 134.156C94.3979 133.816 94.8477 133.341 94.8477 133.098C94.8477 132.855 94.3979 132.657 93.8481 132.657C93.2983 132.657 92.8485 133.134 92.8485 133.715ZM187.54 134.26C187.208 134.592 186.345 134.628 185.624 134.339C184.827 134.02 185.064 133.783 186.228 133.735C187.282 133.692 187.871 133.928 187.54 134.26ZM83.8521 139.071C83.8521 139.942 84.5638 140.654 85.4345 140.654C87.1998 140.654 86.8929 138.502 85.0396 137.884C84.3859 137.666 83.8521 138.201 83.8521 139.071ZM133.832 139.154C133.832 140.488 135.054 140.692 141.579 140.446C145.882 140.284 149.326 139.71 149.326 139.154C149.326 138.598 145.882 138.025 141.579 137.863C135.054 137.617 133.832 137.821 133.832 139.154ZM150.825 139.154C150.825 140.071 151.309 140.659 151.9 140.462C152.491 140.265 152.974 139.676 152.974 139.154C152.974 138.632 152.491 138.044 151.9 137.847C151.309 137.65 150.825 138.238 150.825 139.154ZM156.823 139.154C156.823 140.282 157.525 140.693 159.072 140.474C160.31 140.298 161.321 139.704 161.321 139.154C161.321 138.604 160.31 138.011 159.072 137.835C157.525 137.616 156.823 138.027 156.823 139.154ZM81.0112 146.651C81.0112 148.026 81.2381 148.588 81.515 147.901C81.7929 147.214 81.7929 146.089 81.515 145.402C81.2381 144.715 81.0112 145.277 81.0112 146.651ZM188.81 152.672V155.648H180.938C172.191 155.648 166.819 156.451 166.819 157.76C166.819 158.235 167.607 158.556 168.568 158.477C169.53 158.396 174.457 158.401 179.516 158.489L188.715 158.646L189.012 164.894L189.31 171.141L202.028 171.421L214.747 171.7L215.379 169.179C216.199 165.913 217.799 166.91 217.799 170.688V173.614L183.645 173.877C157.401 174.079 149.396 174.429 149.076 175.39C148.748 176.373 156.001 176.639 183.145 176.639C209.758 176.639 217.766 176.924 218.215 177.889C218.681 178.888 218.915 178.888 219.381 177.889C219.702 177.202 221.051 176.639 222.38 176.639C224.129 176.639 224.796 177.191 224.796 178.638C224.796 180.618 224.129 180.638 158.322 180.638H91.8489V178.572C91.8489 176.959 92.2887 176.644 93.8481 177.139C96.3111 177.921 100.084 176.833 99.3019 175.568C98.986 175.058 97.8555 174.64 96.7879 174.64C95.3195 174.64 94.8477 173.944 94.8477 171.779C94.8477 168.939 94.9057 168.913 102.523 168.223C106.744 167.84 120.385 167.843 132.837 168.229C155.064 168.917 162.821 168.496 162.821 166.598C162.821 166.011 149.793 165.644 128.951 165.644H95.0806L94.4779 163.395C93.2434 158.788 93.4633 158.646 101.845 158.646C112.118 158.646 112.324 156.825 102.095 156.439L94.3479 156.147L94.038 152.94L93.7272 149.733L102.035 149.441C106.603 149.281 127.997 149.273 149.576 149.423L188.81 149.695V152.672ZM211.815 156.897C211.822 160.884 212.1 165.156 212.431 166.393C213.028 168.622 212.938 168.642 202.422 168.642H191.809V159.146V149.65H201.805H211.801L211.815 156.897ZM91.542 154.379C91.2881 155.352 91.0642 154.798 91.0442 153.149C91.0242 151.499 91.2312 150.704 91.5051 151.38C91.7789 152.057 91.7959 153.407 91.542 154.379ZM111.841 157.586C111.841 160.008 136.785 160.309 137.584 157.897C137.9 156.94 134.936 156.647 124.919 156.647C117.436 156.647 111.841 157.049 111.841 157.586ZM142.829 157.647C142.829 158.197 143.953 158.646 145.328 158.646C146.702 158.646 147.827 158.197 147.827 157.647C147.827 157.097 146.702 156.647 145.328 156.647C143.953 156.647 142.829 157.097 142.829 157.647ZM217.353 160.081C218.011 163.591 217.417 165.644 215.74 165.644C215.223 165.644 214.8 163.619 214.8 161.145C214.8 155.843 216.43 155.163 217.353 160.081ZM223.796 161.145C223.796 164.977 223.5 165.644 221.797 165.644C220.094 165.644 219.798 164.977 219.798 161.145C219.798 157.314 220.094 156.647 221.797 156.647C223.5 156.647 223.796 157.314 223.796 161.145ZM238.97 160.896C238.855 163.921 238.337 165.65 237.541 165.659C236.584 165.671 236.597 165.869 237.596 166.501C238.548 167.106 238.716 168.722 238.216 172.484C237.744 176.05 237.88 177.639 238.661 177.639C239.361 177.639 239.79 175.577 239.79 172.214C239.79 167.889 240.145 166.697 241.539 166.332C243.122 165.919 243.127 165.865 241.594 165.76C240.312 165.672 239.808 164.485 239.525 160.896L239.15 156.147L238.97 160.896ZM167.968 166.593C168.188 167.253 168.694 167.759 169.093 167.718C170.289 167.594 170.057 166.223 168.768 165.794C168.108 165.574 167.749 165.934 167.968 166.593ZM174.038 166.809C174.555 168.359 177.696 168.618 178.064 167.143C178.201 166.593 177.252 165.994 175.954 165.81C174.336 165.581 173.733 165.895 174.038 166.809ZM228.794 166.643C228.794 167.193 229.469 167.643 230.294 167.643C231.118 167.643 231.793 167.193 231.793 166.643C231.793 166.093 231.118 165.644 230.294 165.644C229.469 165.644 228.794 166.093 228.794 166.643ZM223.796 170.142C223.796 172.974 223.415 173.64 221.797 173.64C219.127 173.64 218.904 168.023 221.547 167.332C222.509 167.081 223.409 166.823 223.546 166.759C223.683 166.695 223.796 168.218 223.796 170.142ZM92.5376 173.391C92.2867 174.352 92.0808 173.565 92.0808 171.641C92.0808 169.717 92.2867 168.93 92.5376 169.892C92.7895 170.854 92.7895 172.429 92.5376 173.391ZM83.8521 176.222C83.8521 177.093 84.3859 177.628 85.0396 177.41C86.8929 176.792 87.1998 174.64 85.4345 174.64C84.5638 174.64 83.8521 175.352 83.8521 176.222Z" fill="#298367"/>
<path d="M84 209.5V183.5H253.5V196.5L245.5 208L84 209.5Z" fill="#FFD1A4"/>
<path fill-rule="evenodd" clip-rule="evenodd" d="M86.5087 212.12H98.5039H112.748H128.367L145.922 212.37H166.015L199.233 212.245L216.341 212.183H235.949C235.949 212.183 245.217 211.647 249.443 208.122C252.354 205.694 253.494 203.627 254.941 200.125C256.175 197.14 256.691 192.041 256.691 192.041C256.691 192.041 257.94 186.645 257.94 183.132C257.94 178.134 186.968 180.133 186.968 180.133C166.824 180.133 134.153 180.633 114.008 180.633C100.084 180.633 88.0852 180.633 87.3236 180.633C85.8302 180.633 84.5238 181.349 84.1369 182.382C83.7751 183.344 82.8164 184.628 82.0058 185.236C80.2335 186.565 81.1531 189.629 83.3252 189.629C84.1969 189.629 84.8556 188.755 84.8556 187.599C84.8556 184.928 87.2477 184.109 91.36 185.372C93.3332 185.977 95.0556 186.027 95.5884 185.494C96.577 184.505 250.352 184.243 251.944 185.227C253.422 186.141 251.353 194.395 249.443 200.125C248.944 201.624 246.734 205.848 241.447 206.123C236.16 206.397 227.804 206.632 181.756 206.698C147.611 206.746 120.995 207.622 119.495 207.622C115.997 207.622 107.5 207.122 104.501 207.122C101.13 207.357 99.7504 206.854 92.5063 207.122H90.5071H79.5115L76.5127 211.121L86.5087 212.12ZM126.839 188.13C126.839 188.954 127.289 189.629 127.838 189.629C128.388 189.629 128.838 188.954 128.838 188.13C128.838 187.305 128.388 186.63 127.838 186.63C127.289 186.63 126.839 187.305 126.839 188.13ZM90.8532 191.628C90.8532 192.221 94.5188 192.628 99.8496 192.628C105.181 192.628 108.846 192.221 108.846 191.628C108.846 191.036 105.181 190.629 99.8496 190.629C94.5188 190.629 90.8532 191.036 90.8532 191.628ZM165.319 191.635C164.977 192.189 165.29 192.87 166.015 193.148C166.74 193.426 183.262 193.536 202.73 193.391C229.97 193.189 238.224 192.84 238.544 191.878C239.08 190.272 166.311 190.03 165.319 191.635ZM240.793 191.609C240.793 192.849 245.324 194.033 246.734 193.163C248.868 191.844 247.697 190.629 244.292 190.629C242.368 190.629 240.793 191.07 240.793 191.609ZM90.4154 196.526C90.1096 197.02 91.9218 197.589 94.4418 197.79C98.856 198.141 100.499 197.61 99.1559 196.265C98.1823 195.292 91.0472 195.504 90.4154 196.526ZM228.798 197.126C228.798 198.234 229.958 198.626 233.237 198.626C237.804 198.626 239.999 197.302 237.207 196.231C234.024 195.01 228.798 195.566 228.798 197.126ZM240.481 196.272C239.177 197.576 239.8 198.626 241.876 198.626C243.039 198.626 243.784 198.102 243.563 197.439C243.076 195.978 241.407 195.346 240.481 196.272ZM177.345 198.584C176.986 199.164 177.344 199.889 178.14 200.195C180.413 201.068 188.314 200.237 188.314 199.125C188.314 197.76 178.163 197.259 177.345 198.584ZM192.812 198.626C192.812 199.175 193.262 199.625 193.812 199.625C194.362 199.625 194.812 199.175 194.812 198.626C194.812 198.076 194.362 197.626 193.812 197.626C193.262 197.626 192.812 198.076 192.812 198.626ZM197.81 198.626C197.81 199.175 198.485 199.625 199.31 199.625C200.134 199.625 200.809 199.175 200.809 198.626C200.809 198.076 200.134 197.626 199.31 197.626C198.485 197.626 197.81 198.076 197.81 198.626ZM203.808 198.626C203.808 199.175 204.456 199.625 205.248 199.625C206.041 199.625 206.967 199.175 207.307 198.626C207.646 198.076 206.998 197.626 205.866 197.626C204.735 197.626 203.808 198.076 203.808 198.626ZM162.824 200.625C162.824 201.175 163.274 201.624 163.824 201.624C164.374 201.624 164.824 201.175 164.824 200.625C164.824 200.075 164.374 199.625 163.824 199.625C163.274 199.625 162.824 200.075 162.824 200.625ZM89.8536 201.624C89.8536 202.207 93.1853 202.624 97.8504 202.624C102.516 202.624 105.847 202.207 105.847 201.624C105.847 201.042 102.516 200.625 97.8504 200.625C93.1853 200.625 89.8536 201.042 89.8536 201.624ZM213.524 201.366C209.563 201.571 206.991 202.113 207.336 202.67C208.084 203.882 245.473 203.946 246.221 202.738C246.522 202.25 245.761 201.581 244.531 201.252C242.288 200.651 226.224 200.71 213.524 201.366Z" fill="#D5352B"/>
<path fill-rule="evenodd" clip-rule="evenodd" d="M253.608 142.063C253.608 142.063 79.8885 121.624 78.0972 121.594C77.0497 121.577 71.4699 120.93 65.6972 120.155C54.2388 118.617 52.6574 119.037 54.5207 123.128C55.1614 124.533 59.7336 142.651 64.6816 163.389C69.6306 184.127 74.2468 203.344 74.9415 206.092C74.9415 206.092 75.9628 210.784 76.5114 211.119C78.1533 212.119 87.8419 212.091 87.8419 212.091C87.8419 212.091 130.896 212.366 169.656 212.415C242.446 213.415 244.726 212.474 249.833 207.937C250.975 206.922 252.61 205.215 253.851 203.094C254.505 201.975 254.275 202.094 255.275 200.095C256.274 198.096 257.367 190.352 258.274 184.101C259.408 176.279 258.578 177.18 260.656 164.042C262.301 153.643 263.443 144.604 263.195 143.956C262.923 143.249 253.608 142.063 253.608 142.063ZM77.6924 126.626C83.4651 127.222 95.1604 128.58 103.682 129.645C119.831 131.664 187.302 139.12 187.302 139.12C187.302 139.12 257.225 146.886 258.076 147.739C258.294 147.957 257.29 155.678 255.843 164.897C253.786 178.006 252.776 185.102 252.776 185.102C252.776 185.102 251.276 195.098 249.277 200.095C248.2 202.05 247.278 204.594 243.28 205.593C241.667 205.996 227.561 206.542 181.512 206.608C147.367 206.656 121.828 207.447 118.829 207.52C115.831 207.593 100.254 206.765 93.0103 207.033C93.0103 207.033 81.0116 206.917 80.5108 206.417C80.01 205.918 78.5116 197.421 78.5116 197.421C77.3421 192.08 73.1168 173.98 69.0154 156.937C64.9151 139.894 60.6792 125.737 60.6862 125.264C60.6932 124.79 62.1606 124.659 63.9479 124.974C65.7352 125.288 71.9197 126.032 77.6924 126.626Z" fill="#020202"/>
<path fill-rule="evenodd" clip-rule="evenodd" d="M0.287453 86.074C-1.18296 88.453 2.84044 89.8255 15.7723 91.3528C23.1573 92.2255 29.5897 93.33 30.0665 93.8069C30.5443 94.2847 32.2816 100.252 33.929 107.07C37.9544 123.734 57.7415 204.994 63.2253 227.382C66.6659 241.427 68.1053 245.727 69.8376 247.131C71.9368 248.83 76.7739 248.91 162.149 248.668C254.398 248.413 252.899 248.913 252.899 246.414C252.899 243.415 254.398 244.415 162.331 243.915L72.4166 243.415L71.0981 238.917C69.9106 234.862 52.8754 165.065 41.2121 116.466C35.3574 92.0675 35.0665 91.1669 32.4946 89.5296C31.306 88.7739 24.6927 87.4404 17.7965 86.5667C2.9314 84.6835 1.1771 84.6345 0.287453 86.074ZM77.6895 252.776C67.8144 259.039 66.2221 271.598 74.1569 280.635C81.0801 288.52 92.6625 289.167 100.145 282.086C104.276 278.179 105.804 274.648 105.804 269.02C105.804 262.925 104.511 259.3 100.992 255.537C95.0275 249.158 85.2265 247.996 77.6895 252.776ZM216.76 251.029C215.385 251.573 212.589 253.645 210.546 255.633C201.613 264.327 203.962 279.429 215.083 284.812C223.163 288.724 231.733 287.102 237.463 280.576C240.214 277.441 242.738 271.62 242.738 268.405C242.738 262.417 236.76 253.648 231.052 251.263C227.324 249.705 220.389 249.592 216.76 251.029ZM96.2121 257.959C103.156 264.057 103.176 272.736 96.2611 278.808C89.7896 284.491 79.1529 282.345 75.4864 274.62C70.8083 264.761 77.0697 254.922 88.0263 254.914C91.8588 254.911 93.3892 255.48 96.2121 257.959ZM230.701 256.383C233.594 257.878 237.751 264.968 237.751 268.405C237.751 271.755 233.863 278.405 230.871 280.172C227.012 282.452 220.055 282.377 216.18 280.014C212.75 277.923 209.763 272.518 209.763 268.405C209.763 264.292 212.75 258.887 216.18 256.796C219.886 254.536 226.753 254.341 230.701 256.383Z" fill="#020202"/>
</svg>
